<svg width="1920" height="1080" xmlns="http://www.w3.org/2000/svg" stroke="null" style="vector-effect: non-scaling-stroke;">
 <defs stroke="null" style="vector-effect: non-scaling-stroke;">
  <linearGradient stroke="null" style="vector-effect: non-scaling-stroke;" y2="0.93984" x2="1" y1="0.20547" x1="0.01953" id="svg_27">
   <stop stroke="null" style="vector-effect: non-scaling-stroke;" offset="0.17188" stop-opacity="0.99219" stop-color="#3f007f"/>
   <stop stroke="null" style="vector-effect: non-scaling-stroke;" offset="0.83203" stop-opacity="0.99219" stop-color="#aa56ff"/>
  </linearGradient>
 </defs>
 <g stroke="null">
  <title stroke="null">Layer 1</title>
  <rect stroke="null" id="svg_25" height="1491.77172" width="1976.28449" y="-33.09524" x="-27.33259" stroke-width="10" fill="url(#svg_27)"/>
  <rect stroke="null" style="vector-effect: non-scaling-stroke;" transform="translate(430.954 11.9048)" rx="10" id="svg_6" height="236" width="15" y="-8.92501" x="132.99999" fill="url(#svg_10)"/>
  <rect stroke="null" style="vector-effect: non-scaling-stroke;" transform="translate(430.954 11.9048)" rx="10" id="svg_14" height="236" width="15" y="-31.92501" x="161.99999" fill="url(#svg_10)"/>
  <rect stroke="url(#svg_18)" style="vector-effect: non-scaling-stroke;" transform="translate(430.954 11.9048) rotate(-50 598.805 999.744)" rx="10" stroke-width="10" id="svg_17" height="370.94018" width="360.68377" y="814.27392" x="418.46327" fill="none"/>
  <ellipse stroke="null" style="vector-effect: non-scaling-stroke;" transform="translate(430.954 11.9048) rotate(138.138 954.043 170.926)" opacity="0.77" ry="233.93412" rx="254.44858" id="svg_19" cy="170.92552" cx="954.04258" stroke-width="10" fill="url(#svg_23)"/>
  <rect stroke="null" style="vector-effect: non-scaling-stroke;" transform="translate(430.954 11.9048) rotate(-126.325 108.597 919.423)" opacity="0.6" rx="70" id="svg_20" height="425.88867" width="107.11628" y="706.479" x="55.03854" fill="url(#svg_10)"/>
  <rect stroke="null" style="vector-effect: non-scaling-stroke;" transform="translate(430.954 11.9048) rotate(-126.325 34.1287 976.87)" opacity="0.75" rx="70" id="svg_21" height="425.88867" width="107.11628" y="763.92582" x="-19.42955" fill="url(#svg_10)"/>
  <ellipse stroke="null" style="vector-effect: non-scaling-stroke;" transform="translate(430.954 11.9048) rotate(138.138 997.661 116.671)" ry="224.50895" rx="247.43158" id="svg_24" cy="116.67076" cx="997.66071" stroke-width="10" fill="url(#svg_23)"/>
  <rect stroke="null" style="vector-effect: non-scaling-stroke;" transform="translate(43.4783 -154.348) translate(447.621 152.382) translate(162 -31.925) scale(1 1.49742) translate(-162 31.925) translate(162 -31.925) scale(1.72464 1) translate(-162 31.925)" rx="10" id="svg_43" height="236" width="15" y="-31.92501" x="161.99999" fill="url(#gradbox_fill)"/>
  <rect stroke="url(#svg_18)" style="vector-effect: non-scaling-stroke;" transform="rotate(-43 1624.89 1058.44) translate(123.913 8.69565) translate(902.174 50)" rx="10" stroke-width="10" id="svg_44" height="370.94018" width="360.68377" y="814.27392" x="418.46327" fill="url(#gradbox_fill)"/>
  <ellipse stroke="null" style="vector-effect: non-scaling-stroke;" transform="translate(245.239 -221.43) translate(-271.43 192.858) translate(811.908 -9.52385)" opacity="0.77" ry="233.93412" rx="254.44858" id="svg_45" cy="170.92552" cx="954.04258" stroke-width="10" fill="url(#gradbox_fill)"/>
  <rect stroke="null" transform="rotate(-126.325 108.597 919.423)" opacity="0.6" rx="70" id="svg_46" height="425.88867" width="107.11628" y="706.479" x="55.03854" fill="url(#gradbox_fill)"/>
  <ellipse stroke="null" style="vector-effect: non-scaling-stroke;" transform="translate(1569.05 -245.239) translate(-1480.96 -759.527) translate(-109.524 923.814) translate(316.668 -685.717) translate(500.002 730.956)" ry="224.50895" rx="247.43158" id="svg_48" cy="116.67076" cx="997.66071" stroke-width="10" fill="url(#gradbox_fill)"/>
  <rect stroke="null" transform="rotate(-127 25.9879 980.293) translate(-82.6087 60.8696)" rx="70" id="svg_51" height="425.88867" width="107.11628" y="706.479" x="55.03854" fill="url(#gradbox_fill)"/>
  <rect stroke="null" style="vector-effect: non-scaling-stroke;" transform="translate(56.5217 15.2174) translate(43.4783 -154.348) translate(447.621 152.382) translate(162 -31.925) scale(1 1.49742) translate(-162 31.925) translate(162 -31.925) scale(1.72464 1) translate(-162 31.925) translate(162 -31.925) scale(1 1.25792) translate(-162 31.925)" rx="10" id="svg_52" height="236" width="15" y="-31.92501" x="161.99999" fill="url(#gradbox_fill)"/>
 </g>
</svg>