<?xml version="1.0" encoding="utf-8"?>
<!-- Generator: Adobe Illustrator 26.2.1, SVG Export Plug-In . SVG Version: 6.00 Build 0)  -->
<svg version="1.1" id="Layer_1" xmlns="http://www.w3.org/2000/svg" xmlns:xlink="http://www.w3.org/1999/xlink" x="0px" y="0px"
	 viewBox="0 0 1920 1080" style="enable-background:new 0 0 1920 1080;" xml:space="preserve">
<style type="text/css">
	.st0{fill:url(#SVGID_1_);stroke:#000000;stroke-miterlimit:10;}
</style>
<linearGradient id="SVGID_1_" gradientUnits="userSpaceOnUse" x1="-260.5" y1="194.5" x2="2049.04" y2="194.5">
	<stop  offset="1.385225e-07" style="stop-color:#79B6C7"/>
	<stop  offset="0.4251" style="stop-color:#6D95C7"/>
	<stop  offset="1" style="stop-color:#7986C7"/>
</linearGradient>
<path class="st0" d="M2049.04,160.39c0,178.34-144.44,322.92-322.61,322.92c-125.93,0-235.01-72.23-288.15-177.55
	c-41.81-2.34-80.27-17.19-111.71-40.89c-49,113.89-162.22,193.63-294.07,193.63c-67.43,0-129.99-20.86-181.58-56.48
	c-8.1,0.98-16.35,1.48-24.71,1.48c-68.35,0-128.9-33.43-166.21-84.84c-10.98,1.87-22.27,2.84-33.79,2.84
	c-24.35,0-47.68-4.35-69.26-12.31C509.31,426.1,394.53,508.5,260.5,508.5c-34.59,0-67.91-5.49-99.11-15.65
	C128.37,539.81,73.77,570.5,12,570.5c-100.79,0-182.5-81.71-182.5-182.5c0-29.4,6.95-57.18,19.31-81.77
	C-215.54,278.03-260.5,213.76-260.5,139c0-100.79,81.71-182.5,182.5-182.5c34.27,0,66.34,9.45,93.73,25.88
	C74.42-87.26,162.3-131.5,260.5-131.5c92.33,0,175.54,39.11,233.94,101.67c35.22-30.82,81.31-49.49,131.77-49.49
	c51.18,0,97.87,19.2,133.28,50.82c56.25-91.78,157.48-153,273.01-153c111.23,0,209.21,56.75,266.55,142.89
	c37.5-40.66,91.22-66.13,150.88-66.13c26.09,0,51.04,4.87,73.99,13.75c55.36-44.75,125.81-71.54,202.51-71.54
	C1904.6-162.53,2049.04-17.96,2049.04,160.39z"/>
</svg>
